<svg width="116" height="42" viewBox="0 0 116 42" fill="none" xmlns="http://www.w3.org/2000/svg">
<g id="Logo">
<path id="Vector" d="M46.51 28.342C44.93 28.342 43.4967 27.9854 42.21 27.272C40.9233 26.5587 39.9 25.5154 39.14 24.142C38.38 22.762 38 21.082 38 19.102V13.562C38 10.5887 38.8367 8.30535 40.51 6.71202C42.1767 5.11869 44.44 4.32202 47.3 4.32202C50.14 4.32202 52.3367 5.07535 53.89 6.58202C55.4367 8.08869 56.21 10.1287 56.21 12.702V12.832H51.92V12.572C51.92 11.7587 51.75 11.022 51.41 10.362C51.07 9.70202 50.56 9.17869 49.88 8.79202C49.2 8.40535 48.34 8.21202 47.3 8.21202C45.76 8.21202 44.55 8.68535 43.67 9.63202C42.79 10.5787 42.35 11.8654 42.35 13.492V19.172C42.35 20.7787 42.79 22.072 43.67 23.052C44.55 24.032 45.7833 24.522 47.37 24.522C48.9567 24.522 50.1133 24.102 50.84 23.262C51.56 22.4287 51.92 21.372 51.92 20.092V19.762H46.45V16.072H56.21V27.882H52.19V25.672H51.59C51.4367 26.0454 51.19 26.442 50.85 26.862C50.51 27.282 50 27.632 49.32 27.912C48.6333 28.1987 47.6967 28.342 46.51 28.342Z" fill="#EA580C"/>
<path id="Vector_2" d="M67.8603 28.342C66.2336 28.342 64.7703 28.012 63.4703 27.352C62.1769 26.692 61.1569 25.7353 60.4103 24.482C59.6569 23.2287 59.2803 21.722 59.2803 19.962V19.432C59.2803 17.672 59.6569 16.1653 60.4103 14.912C61.1569 13.6587 62.1769 12.702 63.4703 12.042C64.7703 11.382 66.2336 11.052 67.8603 11.052C69.4936 11.052 70.9569 11.382 72.2503 12.042C73.5503 12.702 74.5736 13.6587 75.3203 14.912C76.0669 16.1653 76.4403 17.672 76.4403 19.432V19.962C76.4403 21.722 76.0669 23.2287 75.3203 24.482C74.5736 25.7353 73.5503 26.692 72.2503 27.352C70.9569 28.012 69.4936 28.342 67.8603 28.342ZM67.8603 24.652C69.1403 24.652 70.1969 24.2387 71.0303 23.412C71.8703 22.5853 72.2903 21.402 72.2903 19.862V19.532C72.2903 17.992 71.8769 16.8087 71.0503 15.982C70.2236 15.162 69.1603 14.752 67.8603 14.752C66.5869 14.752 65.5336 15.162 64.7003 15.982C63.8603 16.8087 63.4403 17.992 63.4403 19.532V19.862C63.4403 21.402 63.8603 22.5853 64.7003 23.412C65.5336 24.2387 66.5869 24.652 67.8603 24.652Z" fill="#EA580C"/>
<path id="Vector_3" d="M18.401 0.313965C8.68996 0.313965 0.813965 8.18996 0.813965 17.901C0.813965 27.614 8.68896 35.488 18.401 35.488C28.114 35.488 35.988 27.614 35.988 17.901C35.988 8.18996 28.114 0.313965 18.401 0.313965ZM18.401 34.485C9.25696 34.485 1.81696 27.045 1.81696 17.901C1.81696 8.75596 9.25697 1.31696 18.402 1.31696C27.546 1.31696 34.985 8.75696 34.985 17.901C34.985 27.046 27.545 34.485 18.402 34.485" fill="#D1D5DB"/>
<path id="Vector_4" d="M18.4023 2.02999C9.65027 2.02999 2.53027 9.14999 2.53027 17.9C2.53027 26.652 9.65027 33.771 18.4023 33.771C27.1533 33.771 34.2723 26.651 34.2723 17.9C34.2723 9.14799 27.1523 2.02999 18.4023 2.02999ZM28.2613 6.70499C30.6268 8.78625 32.2722 11.5635 32.9613 14.638C32.7313 14.678 32.3113 14.768 31.8553 14.819C31.2145 12.0177 29.7146 9.48646 27.5653 7.57899C27.8083 7.23999 28.1103 6.89399 28.2613 6.70499ZM23.3043 13.133C23.5863 12.385 24.8943 9.70899 25.5323 8.39799C25.5663 8.32799 25.6343 8.20799 25.6993 8.10099C26.9936 9.06448 28.0841 10.275 28.9077 11.6626C29.7312 13.0502 30.2715 14.5873 30.4973 16.185C30.3574 16.1916 30.2172 16.1919 30.0773 16.186C28.6223 16.091 25.6753 15.901 24.8853 15.776C23.9153 15.587 23.3523 14.919 23.3523 14.919L23.3503 14.921C23.2773 14.724 23.0303 13.944 23.3043 13.133ZM23.6183 17.9C23.6183 20.777 21.2783 23.117 18.4013 23.117C15.5243 23.117 13.1843 20.777 13.1843 17.9C13.1843 15.023 15.5243 12.683 18.4013 12.683C21.2783 12.683 23.6183 15.023 23.6183 17.9ZM19.8403 11.186C19.8403 11.186 19.0453 12.163 18.0893 12.075C17.5145 11.9725 16.984 11.6989 16.5673 11.29C16.0213 10.706 14.0173 8.07499 13.1233 6.92299C13.1133 6.91099 13.1103 6.89899 13.1033 6.88799C14.7555 6.09206 16.5663 5.68011 18.4003 5.68299C20.0673 5.68299 21.6563 6.01799 23.1043 6.62299C22.3183 7.84799 19.8393 11.187 19.8393 11.187M18.4013 2.97999C19.9903 2.97999 21.5193 3.22999 22.9553 3.68999C22.7798 4.02487 22.6058 4.36054 22.4333 4.69699C21.1264 4.29845 19.7676 4.09625 18.4013 4.09699C16.6843 4.09699 15.0413 4.41299 13.5253 4.98599C13.2703 4.61599 13.0673 4.21999 12.9523 4.01199C14.688 3.32884 16.5369 2.97874 18.4023 2.97999M10.6403 8.46499C11.3653 9.66499 13.2883 13.535 13.2883 13.535C13.2883 13.535 13.8043 14.487 13.3013 15.305L13.2933 15.318C12.9089 15.702 12.4246 15.9705 11.8953 16.093C11.1083 16.239 8.16827 16.516 6.71727 16.649C6.61027 16.659 6.38727 16.662 6.24527 16.658C6.57112 13.4538 8.15103 10.5086 10.6403 8.46499ZM7.84827 7.35299C8.17027 7.67499 8.45327 8.01999 8.59027 8.19299C6.65931 10.141 5.35419 12.6213 4.84227 15.316C4.37527 15.255 3.94227 15.174 3.73827 15.149C4.28998 12.1951 5.72279 9.47725 7.84827 7.35299ZM8.58227 29.131C6.22121 27.069 4.57029 24.3152 3.86427 21.261C4.28827 21.238 4.74427 21.224 5.00127 21.218C5.67398 23.9336 7.15656 26.3805 9.25227 28.234C8.98227 28.6 8.67627 28.987 8.58227 29.131ZM13.4673 22.544C13.1843 23.292 12.0713 25.899 11.4333 27.21C11.3444 27.3847 11.2431 27.5527 11.1303 27.713L11.1253 27.717C9.82859 26.7562 8.7353 25.5478 7.90865 24.1618C7.08199 22.7757 6.53838 21.2395 6.30927 19.642C7.60727 19.654 12.0233 20.065 12.0233 20.065C12.0233 20.065 13.1773 20.16 13.5973 21.025L13.6203 21.088C13.6883 21.394 13.6843 21.902 13.4673 22.544ZM18.4013 32.822C16.8383 32.822 15.3323 32.581 13.9163 32.135C14.1003 31.783 14.3023 31.379 14.4303 31.122C15.7184 31.5089 17.0563 31.7053 18.4013 31.705C19.8325 31.7055 21.2552 31.4835 22.6183 31.047C22.7753 31.522 22.9283 31.941 23.0043 32.095C21.5176 32.5775 19.9643 32.8229 18.4013 32.822ZM18.4013 30.119C16.7989 30.1203 15.2119 29.8057 13.7313 29.193L13.7373 29.183C14.3403 28.173 16.9313 24.491 16.9313 24.491C16.9313 24.491 17.5693 23.619 18.5273 23.708V23.671C18.7633 23.731 19.4223 23.948 19.9463 24.548C20.4493 25.169 22.1413 27.692 22.9523 28.904C22.9923 28.964 23.0563 29.073 23.1123 29.177C21.6204 29.8005 20.0192 30.1208 18.4023 30.119M25.7063 27.697C25.0383 26.389 23.3743 22.539 23.3743 22.539C23.3743 22.539 22.9043 21.543 23.4643 20.761L23.4893 20.714C23.8993 19.871 24.8633 19.75 24.8633 19.75C24.8633 19.75 29.2453 19.217 30.5553 19.168C30.3812 20.8479 29.8602 22.4734 29.0254 23.9415C28.1905 25.4096 27.061 26.6884 25.7063 27.697ZM28.3163 29.048C28.0423 28.608 27.7893 28.214 27.7113 28.093C29.8553 26.1374 31.3275 23.5551 31.9183 20.714C32.1753 20.719 32.6283 20.728 33.0503 20.741C32.4275 23.9548 30.7638 26.8741 28.3163 29.048Z" fill="#D1D5DB"/>
<path id="Vector_5" d="M18.401 13.397C15.917 13.397 13.897 15.417 13.897 17.901C13.897 20.385 15.917 22.405 18.401 22.405C19.5951 22.4036 20.7399 21.9287 21.5843 21.0843C22.4287 20.2399 22.9036 19.0951 22.905 17.901C22.9034 16.7069 22.4283 15.5622 21.584 14.7179C20.7397 13.8736 19.595 13.3986 18.401 13.397ZM16.613 14.425C16.8231 14.4252 17.0246 14.5089 17.1731 14.6576C17.3216 14.8063 17.405 15.0078 17.405 15.218C17.3977 15.4233 17.311 15.6178 17.1632 15.7604C17.0153 15.9031 16.8179 15.9828 16.6125 15.9828C16.407 15.9828 16.2096 15.9031 16.0618 15.7604C15.914 15.6178 15.8273 15.4233 15.82 15.218C15.82 15.0077 15.9035 14.806 16.0522 14.6572C16.201 14.5085 16.4027 14.425 16.613 14.425ZM15.367 19.508C15.1568 19.508 14.9553 19.4246 14.8066 19.2761C14.6579 19.1276 14.5742 18.9261 14.574 18.716C14.5742 18.5058 14.6579 18.3044 14.8066 18.1559C14.9553 18.0074 15.1568 17.924 15.367 17.924C15.5701 17.9342 15.7616 18.0221 15.9018 18.1695C16.042 18.3169 16.1202 18.5125 16.1202 18.716C16.1202 18.9194 16.042 19.115 15.9018 19.2625C15.7616 19.4099 15.5701 19.4978 15.367 19.508ZM18.401 21.865C18.1908 21.865 17.9893 21.7816 17.8406 21.6331C17.6919 21.4846 17.6082 21.2831 17.608 21.073C17.608 20.8627 17.6915 20.661 17.8402 20.5122C17.989 20.3635 18.1907 20.28 18.401 20.28C18.6111 20.2802 18.8126 20.3639 18.9611 20.5126C19.1096 20.6613 19.193 20.8628 19.193 21.073C19.1927 21.2829 19.1092 21.4842 18.9607 21.6327C18.8122 21.7812 18.6109 21.8647 18.401 21.865ZM18.401 19.835C17.8882 19.835 17.3964 19.6313 17.0338 19.2687C16.6712 18.9061 16.4675 18.4143 16.4675 17.9015C16.4675 17.3887 16.6712 16.8969 17.0338 16.5343C17.3964 16.1717 17.8882 15.968 18.401 15.968C18.9136 15.968 19.4053 16.1716 19.7678 16.5341C20.1303 16.8966 20.334 17.3883 20.334 17.901C20.334 18.4136 20.1303 18.9053 19.7678 19.2678C19.4053 19.6303 18.9136 19.835 18.401 19.835ZM19.543 15.387C19.5432 15.177 19.6268 14.9757 19.7752 14.8272C19.9237 14.6788 20.125 14.5952 20.335 14.595C20.4919 14.5948 20.6454 14.6411 20.7759 14.7282C20.9065 14.8153 21.0083 14.9391 21.0684 15.084C21.1286 15.229 21.1444 15.3885 21.1138 15.5424C21.0832 15.6964 21.0077 15.8377 20.8967 15.9487C20.7857 16.0597 20.6444 16.1352 20.4904 16.1658C20.3365 16.1964 20.177 16.1806 20.032 16.1204C19.8871 16.0603 19.7633 15.9585 19.6762 15.8279C19.5891 15.6974 19.5428 15.5439 19.543 15.387ZM22.222 18.957C22.2221 19.0611 22.2017 19.1643 22.162 19.2605C22.1223 19.3568 22.064 19.4443 21.9904 19.518C21.9169 19.5917 21.8295 19.6503 21.7334 19.6902C21.6372 19.7302 21.5341 19.7508 21.43 19.751C21.2197 19.751 21.018 19.6674 20.8692 19.5187C20.7205 19.37 20.637 19.1683 20.637 18.958C20.6443 18.7527 20.731 18.5582 20.8788 18.4155C21.0266 18.2729 21.224 18.1931 21.4295 18.1931C21.6349 18.1931 21.8323 18.2729 21.9802 18.4155C22.128 18.5582 22.2147 18.7517 22.222 18.957ZM48.716 32.555L49.794 31.933V30.293H47.634V31.933L48.716 32.555ZM51.43 32.555L52.513 31.933V30.293H50.347V31.933L51.43 32.555ZM43.283 32.555L44.366 31.933V30.293H42.206V31.933L43.283 32.555ZM54.144 32.555L55.227 31.933V30.293H53.067V31.933L54.144 32.555ZM46.002 32.555L47.08 31.933V30.293H44.92V31.933L46.002 32.555Z" fill="#D1D5DB"/>
<path id="Vector_6" d="M37.8551 34.841L39.2151 34.058L40.5691 34.841L41.9291 34.058L43.2831 34.841L44.6431 34.058L46.0031 34.841L47.3571 34.058L48.7171 34.841L50.0711 34.058L51.4311 34.841L52.7851 34.058L54.1451 34.841L55.5041 34.058L56.8591 34.841L56.9421 34.791L58.2181 34.058L59.5731 34.841L60.9321 34.058L62.2921 34.841L63.6461 34.058L65.0061 34.841L66.3601 34.058L67.7201 34.841L69.0791 34.058L70.4341 34.841L71.7941 34.058L73.1481 34.841L74.5081 34.058L75.8671 34.841L77.2211 34.058L78.5811 34.841L79.9351 34.058L81.2951 34.841L81.3041 34.831V33.187L81.2941 33.191L79.9351 32.408L78.5811 33.191L77.2211 32.408L75.8671 33.191L74.5071 32.408L73.1471 33.191L71.7931 32.408L70.4331 33.191L69.0791 32.408L67.7191 33.191L66.3601 32.408L65.0061 33.191L63.6461 32.408L62.2911 33.191L60.9321 32.408L59.5861 33.187L59.5731 33.191L58.2181 32.408L56.8581 33.191L55.5041 32.408L54.1441 33.191L52.7851 32.408L51.4301 33.191L50.0711 32.408L48.7161 33.191L47.3561 32.408L46.0021 33.191L44.6421 32.408L43.2831 33.191L41.9291 32.408L40.5691 33.191L39.2151 32.408L37.8551 33.191L36.5001 32.408L35.2241 33.145V34.79L36.5001 34.058L37.8551 34.841Z" fill="#D1D5DB"/>
<path id="Vector_7" d="M56.8591 32.555L56.9421 32.509L57.9421 31.933V30.293H55.7761V31.933L56.8591 32.555ZM37.8551 37.122L39.2151 36.339L40.5691 37.122L41.9291 36.339L43.2831 37.122L44.6431 36.339L46.0031 37.122L47.3571 36.339L48.7171 37.122L50.0711 36.339L51.4311 37.122L52.7851 36.339L54.1451 37.122L55.5041 36.339L56.8591 37.122L56.9421 37.072L58.2181 36.339L59.5731 37.122L60.9321 36.339L62.2921 37.122L63.6461 36.339L65.0061 37.122L66.3601 36.339L67.7201 37.122L69.0791 36.339L70.4341 37.122L71.7941 36.339L73.1481 37.122L74.5081 36.339L75.8671 37.122L77.2211 36.339L78.5811 37.122L79.9351 36.339L81.2951 37.122L81.3041 37.117V35.467L81.2941 35.477L79.9351 34.694L78.5811 35.477L77.2211 34.694L75.8671 35.477L74.5071 34.694L73.1471 35.477L71.7931 34.694L70.4331 35.477L69.0791 34.694L67.7191 35.477L66.3601 34.694L65.0061 35.477L63.6461 34.694L62.2911 35.477L60.9321 34.694L59.5861 35.468L59.5731 35.477L58.2181 34.694L56.8581 35.477L55.5041 34.694L54.1441 35.477L52.7851 34.694L51.4301 35.477L50.0711 34.694L48.7161 35.477L47.3561 34.694L46.0021 35.477L44.6421 34.694L43.2831 35.477L41.9291 34.694L40.5691 35.477L39.2151 34.694L37.8551 35.477L36.5001 34.694L35.2241 35.426V37.071L36.5001 36.339L37.8551 37.122ZM40.5691 32.555L41.6521 31.933V30.293H39.4911V31.933L40.5691 32.555ZM58.4941 31.933L59.5731 32.555L60.6561 31.933V30.293H58.4941V31.933ZM36.2241 30.293H35.2241V32.509L36.2241 31.933V30.293ZM36.5001 39.26L35.4181 39.882V41.223H37.5781V39.883L36.5001 39.26ZM47.3571 39.26L46.2741 39.882V41.223H48.4401V39.883L47.3571 39.26ZM50.0711 39.26L48.9931 39.882V41.223H51.1531V39.883L50.0711 39.26ZM52.7851 39.26L51.7071 39.882V41.223H53.8681V39.883L52.7851 39.26ZM55.5041 39.26L54.4211 39.882V41.223H56.5821V39.883L55.5041 39.26ZM41.9291 39.26L40.8461 39.882V41.223H43.0121V39.883L41.9291 39.26ZM39.2151 39.26L38.1321 39.882V41.223H40.2921V39.883L39.2151 39.26Z" fill="#D1D5DB"/>
<path id="Vector_8" d="M37.8551 39.403L39.2151 38.624L40.5691 39.403L41.9291 38.624L43.2831 39.403L44.6431 38.624L46.0031 39.403L47.3571 38.624L48.7171 39.403L50.0711 38.624L51.4311 39.403L52.7851 38.624L54.1451 39.403L55.5041 38.624L56.8591 39.403L56.9421 39.357L58.2181 38.624L59.5731 39.403L60.9321 38.624L62.2921 39.403L63.6461 38.624L65.0061 39.403L66.3601 38.624L67.7201 39.403L69.0791 38.624L70.4341 39.403L71.7941 38.624L73.1481 39.403L74.5081 38.624L75.8671 39.403L77.2211 38.624L78.5811 39.403L79.9351 38.624L81.2951 39.403L81.3041 39.398V37.753L81.2941 37.758L79.9351 36.979L78.5811 37.758L77.2211 36.979L75.8671 37.758L74.5071 36.979L73.1471 37.758L71.7931 36.979L70.4331 37.758L69.0791 36.979L67.7191 37.758L66.3601 36.979L65.0061 37.758L63.6461 36.979L62.2911 37.758L60.9321 36.979L59.5861 37.753L59.5731 37.758L58.2181 36.979L56.8581 37.758L55.5041 36.979L54.1441 37.758L52.7851 36.979L51.4301 37.758L50.0711 36.979L48.7161 37.758L47.3561 36.979L46.0021 37.758L44.6421 36.979L43.2831 37.758L41.9291 36.979L40.5691 37.758L39.2151 36.979L37.8551 37.758L36.5001 36.979L35.2241 37.712V39.357L36.5001 38.624L37.8551 39.403ZM37.8551 32.555L38.9381 31.933V30.293H36.7721V31.933L37.8551 32.555Z" fill="#D1D5DB"/>
<path id="Vector_9" d="M44.6431 39.26L43.5601 39.882V41.223H45.7261V39.883L44.6431 39.26ZM70.4331 32.555L71.5171 31.933V30.293H69.3501V31.933L70.4331 32.555ZM73.1481 32.555L74.2311 31.933V30.293H72.0701V31.933L73.1481 32.555ZM65.0061 32.555L66.0881 31.933V30.293H63.9231V31.933L65.0061 32.555ZM75.8661 32.555L76.9451 31.933V30.293H74.7841V31.933L75.8661 32.555ZM67.7201 32.555L68.8021 31.933V30.293H66.6371V31.933L67.7201 32.555ZM78.5801 32.555L79.6591 31.933V30.293H77.4981V31.933L78.5801 32.555ZM62.2911 32.555L63.3701 31.933V30.293H61.2091V31.933L62.2911 32.555ZM81.2951 32.555L81.3041 32.551V30.293H80.2121V31.933L81.2951 32.555ZM58.2181 39.26L57.1351 39.882V41.223H59.3011V39.883L58.2181 39.26ZM69.0791 39.26L67.9961 39.882V41.223H70.1571V39.883L69.0791 39.26ZM71.7931 39.26L70.7101 39.882V41.223H72.8761V39.883L71.7931 39.26ZM74.5071 39.26L73.4241 39.882V41.223H75.5901V39.883L74.5071 39.26ZM81.0181 39.882L79.9351 39.26L78.8571 39.882V41.223H81.0181V39.882ZM77.2211 39.26L76.1381 39.882V41.223H78.3041V39.883L77.2211 39.26ZM63.6461 39.26L62.5681 39.882V41.223H64.7291V39.883L63.6461 39.26ZM60.9321 39.26L59.8491 39.882V41.223H62.0151V39.883L60.9321 39.26ZM66.3601 39.26L65.2821 39.882V41.223H67.4431V39.883L66.3601 39.26Z" fill="#D1D5DB"/>
<path id="Vector_10" d="M44.2399 39.082C44.1666 39.082 44.1266 39.0487 44.1199 38.982L43.4199 32.212V32.192C43.4199 32.1187 43.4599 32.082 43.5399 32.082H44.4799C44.5133 32.082 44.5399 32.092 44.5599 32.112C44.5799 32.132 44.5899 32.1587 44.5899 32.192L44.9499 36.562C44.9566 36.582 44.9666 36.592 44.9799 36.592C44.9933 36.592 45.0033 36.5787 45.0099 36.552L46.3799 32.192C46.3999 32.1187 46.4466 32.082 46.5199 32.082H47.3699C47.4033 32.082 47.4299 32.092 47.4499 32.112C47.4699 32.132 47.4799 32.1587 47.4799 32.192L47.8399 36.562C47.8466 36.5887 47.8566 36.602 47.8699 36.602C47.8833 36.602 47.8933 36.5887 47.8999 36.562L49.2899 32.192C49.3099 32.1187 49.3566 32.082 49.4299 32.082H50.3199C50.4133 32.082 50.4466 32.1254 50.4199 32.212L48.1399 38.972C48.1199 39.0454 48.0733 39.082 47.9999 39.082H47.1299C47.0566 39.082 47.0199 39.0454 47.0199 38.972L46.6799 34.462C46.6733 34.442 46.6633 34.432 46.6499 34.432C46.6366 34.432 46.6266 34.442 46.6199 34.462L45.2199 38.972C45.1999 39.0454 45.1533 39.082 45.0799 39.082H44.2399Z" fill="#EA580C"/>
<path id="Vector_11" d="M53.0997 33.892C53.5197 33.892 53.8431 34.0154 54.0697 34.262C54.2964 34.5087 54.4097 34.852 54.4097 35.292C54.4097 35.352 54.4031 35.462 54.3897 35.622L53.9797 38.962C53.9731 38.9954 53.9564 39.0254 53.9297 39.052C53.9097 39.072 53.8831 39.082 53.8497 39.082H52.9497C52.9164 39.082 52.8897 39.072 52.8697 39.052C52.8497 39.0254 52.8431 38.9954 52.8497 38.962L53.2397 35.782C53.2464 35.742 53.2497 35.682 53.2497 35.602C53.2497 35.382 53.1931 35.2087 53.0797 35.082C52.9731 34.9554 52.8197 34.892 52.6197 34.892C52.3864 34.892 52.1897 34.9754 52.0297 35.142C51.8697 35.302 51.7731 35.5187 51.7397 35.792L51.3497 38.962C51.3431 38.9954 51.3264 39.0254 51.2997 39.052C51.2797 39.072 51.2531 39.082 51.2197 39.082H50.3297C50.2564 39.082 50.2197 39.042 50.2197 38.962L51.0497 32.202C51.0564 32.1687 51.0731 32.142 51.0997 32.122C51.1264 32.0954 51.1564 32.082 51.1897 32.082H52.0797C52.1131 32.082 52.1397 32.0954 52.1597 32.122C52.1797 32.142 52.1864 32.1687 52.1797 32.202L51.9197 34.352C51.9131 34.372 51.9164 34.3854 51.9297 34.392C51.9431 34.3987 51.9564 34.392 51.9697 34.372C52.2697 34.052 52.6464 33.892 53.0997 33.892Z" fill="#EA580C"/>
<path id="Vector_12" d="M59.02 35.552C59.02 35.9053 58.98 36.342 58.9 36.862C58.8933 36.942 58.8466 36.982 58.76 36.982H56.16C56.1466 36.982 56.1333 36.9886 56.12 37.002C56.1133 37.0086 56.11 37.0186 56.11 37.032C56.1033 37.132 56.1 37.2686 56.1 37.442C56.1066 37.662 56.1733 37.8386 56.3 37.972C56.4333 38.1053 56.6133 38.172 56.84 38.172C57.0333 38.1653 57.2033 38.1153 57.35 38.022C57.4966 37.9286 57.6133 37.7986 57.7 37.632C57.7466 37.5586 57.8 37.532 57.86 37.552L58.63 37.722C58.7033 37.742 58.7266 37.792 58.7 37.872C58.5133 38.2853 58.25 38.6053 57.91 38.832C57.57 39.052 57.1733 39.162 56.72 39.162C56.14 39.162 55.7033 39.0086 55.41 38.702C55.1233 38.3886 54.98 37.9553 54.98 37.402C54.98 37.1886 55.0033 36.8953 55.05 36.522C55.0833 36.1286 55.14 35.7853 55.22 35.492C55.3466 35.0053 55.5966 34.6186 55.97 34.332C56.3433 34.0386 56.7866 33.892 57.3 33.892C57.84 33.892 58.26 34.0453 58.56 34.352C58.8666 34.652 59.02 35.052 59.02 35.552ZM57.19 34.892C56.97 34.892 56.78 34.9586 56.62 35.092C56.4666 35.2186 56.3633 35.392 56.31 35.612L56.22 36.112C56.22 36.1453 56.2366 36.162 56.27 36.162H57.81C57.8433 36.162 57.86 36.1453 57.86 36.112C57.8733 35.872 57.88 35.702 57.88 35.602C57.88 35.3886 57.8166 35.2186 57.69 35.092C57.5633 34.9586 57.3966 34.892 57.19 34.892Z" fill="#EA580C"/>
<path id="Vector_13" d="M63.58 35.552C63.58 35.9053 63.54 36.342 63.46 36.862C63.4534 36.942 63.4067 36.982 63.32 36.982H60.72C60.7067 36.982 60.6934 36.9886 60.68 37.002C60.6734 37.0086 60.67 37.0186 60.67 37.032C60.6634 37.132 60.66 37.2686 60.66 37.442C60.6667 37.662 60.7334 37.8386 60.86 37.972C60.9934 38.1053 61.1734 38.172 61.4 38.172C61.5934 38.1653 61.7634 38.1153 61.91 38.022C62.0567 37.9286 62.1734 37.7986 62.26 37.632C62.3067 37.5586 62.36 37.532 62.42 37.552L63.19 37.722C63.2634 37.742 63.2867 37.792 63.26 37.872C63.0734 38.2853 62.81 38.6053 62.47 38.832C62.13 39.052 61.7334 39.162 61.28 39.162C60.7 39.162 60.2634 39.0086 59.97 38.702C59.6834 38.3886 59.54 37.9553 59.54 37.402C59.54 37.1886 59.5634 36.8953 59.61 36.522C59.6434 36.1286 59.7 35.7853 59.78 35.492C59.9067 35.0053 60.1567 34.6186 60.53 34.332C60.9034 34.0386 61.3467 33.892 61.86 33.892C62.4 33.892 62.82 34.0453 63.12 34.352C63.4267 34.652 63.58 35.052 63.58 35.552ZM61.75 34.892C61.53 34.892 61.34 34.9586 61.18 35.092C61.0267 35.2186 60.9234 35.392 60.87 35.612L60.78 36.112C60.78 36.1453 60.7967 36.162 60.83 36.162H62.37C62.4034 36.162 62.42 36.1453 62.42 36.112C62.4334 35.872 62.44 35.702 62.44 35.602C62.44 35.3886 62.3767 35.2186 62.25 35.092C62.1234 34.9586 61.9567 34.892 61.75 34.892Z" fill="#EA580C"/>
<path id="Vector_14" d="M64.0498 39.082C64.0164 39.082 63.9898 39.072 63.9698 39.052C63.9498 39.0254 63.9431 38.9954 63.9498 38.962L64.7798 32.202C64.7798 32.1687 64.7931 32.142 64.8198 32.122C64.8464 32.0954 64.8764 32.082 64.9098 32.082H65.7998C65.8331 32.082 65.8598 32.0954 65.8798 32.122C65.8998 32.142 65.9064 32.1687 65.8998 32.202L65.0698 38.962C65.0631 38.9954 65.0464 39.0254 65.0198 39.052C64.9998 39.072 64.9731 39.082 64.9398 39.082H64.0498Z" fill="#EA580C"/>
<path id="Vector_15" d="M67.6202 39.142C67.1002 39.142 66.6868 39.0287 66.3802 38.802C66.0802 38.5753 65.9302 38.272 65.9302 37.892C65.9302 37.8253 65.9335 37.772 65.9402 37.732L65.9502 37.652C65.9568 37.6187 65.9702 37.592 65.9902 37.572C66.0168 37.5453 66.0468 37.532 66.0802 37.532H66.9302C66.9635 37.532 66.9902 37.5453 67.0102 37.572C67.0302 37.592 67.0368 37.6187 67.0302 37.652L67.0202 37.682C67.0002 37.842 67.0568 37.982 67.1902 38.102C67.3302 38.2153 67.5102 38.272 67.7302 38.272C67.9568 38.272 68.1435 38.212 68.2902 38.092C68.4368 37.972 68.5102 37.822 68.5102 37.642C68.5102 37.5087 68.4502 37.402 68.3302 37.322C68.2168 37.242 68.0335 37.1553 67.7802 37.062L67.5402 36.972C67.1535 36.8387 66.8435 36.6753 66.6102 36.482C66.3768 36.282 66.2602 35.9953 66.2602 35.622C66.2602 35.5353 66.2635 35.4687 66.2702 35.422C66.3302 34.9553 66.5368 34.5887 66.8902 34.322C67.2502 34.0487 67.6935 33.912 68.2202 33.912C68.7268 33.912 69.1235 34.032 69.4102 34.272C69.7035 34.5053 69.8502 34.8253 69.8502 35.232C69.8502 35.3187 69.8468 35.3853 69.8402 35.432V35.442C69.8335 35.4753 69.8168 35.5053 69.7902 35.532C69.7702 35.552 69.7435 35.562 69.7102 35.562H68.8902C68.8568 35.562 68.8302 35.552 68.8102 35.532C68.7902 35.5053 68.7835 35.4753 68.7902 35.442L68.8002 35.402C68.8202 35.2353 68.7702 35.0987 68.6502 34.992C68.5302 34.8787 68.3568 34.822 68.1302 34.822C67.9035 34.822 67.7168 34.882 67.5702 35.002C67.4302 35.1153 67.3602 35.2587 67.3602 35.432C67.3602 35.5453 67.4002 35.642 67.4802 35.722C67.5602 35.7953 67.6535 35.8553 67.7602 35.902C67.8735 35.9487 68.0535 36.0153 68.3002 36.102C68.7135 36.2487 69.0435 36.422 69.2902 36.622C69.5368 36.8153 69.6602 37.0987 69.6602 37.472C69.6602 37.552 69.6568 37.6153 69.6502 37.662C69.5902 38.122 69.3768 38.4853 69.0102 38.752C68.6435 39.012 68.1802 39.142 67.6202 39.142Z" fill="#EA580C"/>
<path id="Vector_16" d="M97.2379 1.758C87.5259 1.758 79.6509 9.633 79.6509 19.345C79.6509 29.058 87.5259 36.932 97.2379 36.932C106.951 36.932 114.825 29.058 114.825 19.345C114.825 9.633 106.951 1.758 97.2379 1.758ZM97.2379 35.929C88.0939 35.929 80.6539 28.489 80.6539 19.345C80.6539 10.2 88.0939 2.761 97.2389 2.761C106.383 2.761 113.822 10.201 113.822 19.345C113.822 28.49 106.381 35.929 97.2379 35.929Z" fill="#D1D5DB"/>
<path id="Vector_17" d="M97.2392 3.474C88.4872 3.474 81.3672 10.594 81.3672 19.345C81.3672 28.097 88.4872 35.216 97.2392 35.216C105.99 35.216 113.109 28.096 113.109 19.345C113.109 10.593 105.989 3.474 97.2392 3.474ZM107.098 8.15C109.464 10.2313 111.109 13.0085 111.798 16.083C111.568 16.123 111.148 16.213 110.692 16.264C110.051 13.4627 108.552 10.9315 106.402 9.024C106.645 8.685 106.947 8.339 107.098 8.15ZM102.141 14.578C102.423 13.83 103.731 11.154 104.369 9.843C104.403 9.773 104.471 9.653 104.536 9.546C105.831 10.5095 106.921 11.72 107.745 13.1076C108.568 14.4952 109.108 16.0323 109.334 17.63C109.194 17.6366 109.054 17.6369 108.914 17.631C107.459 17.536 104.512 17.346 103.722 17.221C102.752 17.032 102.189 16.364 102.189 16.364L102.187 16.366C102.114 16.169 101.867 15.389 102.141 14.578ZM102.455 19.345C102.455 22.222 100.115 24.562 97.2382 24.562C94.3612 24.562 92.0212 22.222 92.0212 19.345C92.0212 16.468 94.3612 14.128 97.2382 14.128C100.115 14.128 102.455 16.468 102.455 19.345ZM98.6772 12.631C98.6772 12.631 97.8822 13.608 96.9262 13.52C96.3514 13.4175 95.8209 13.1439 95.4042 12.735C94.8582 12.151 92.8542 9.52 91.9602 8.368C91.9502 8.356 91.9472 8.344 91.9402 8.333C93.5926 7.53657 95.4038 7.12428 97.2382 7.127C98.9052 7.127 100.494 7.462 101.942 8.067C101.156 9.292 98.6772 12.631 98.6772 12.631ZM97.2382 4.424C98.8272 4.424 100.356 4.674 101.792 5.134C101.617 5.46888 101.443 5.80455 101.27 6.141C99.9633 5.74246 98.6045 5.54025 97.2382 5.541C95.5212 5.541 93.8782 5.857 92.3622 6.43C92.1072 6.06 91.9042 5.664 91.7892 5.456C93.5249 4.77285 95.3728 4.42274 97.2382 4.424ZM89.4782 9.909C90.2032 11.109 92.1262 14.979 92.1262 14.979C92.1262 14.979 92.6422 15.931 92.1392 16.749L92.1312 16.762C91.7469 17.146 91.2625 17.4145 90.7332 17.537C89.9462 17.683 87.0062 17.96 85.5552 18.093C85.4482 18.103 85.2252 18.106 85.0832 18.102C85.409 14.8978 86.9889 11.9526 89.4782 9.909ZM86.6862 8.797C87.0082 9.119 87.2912 9.464 87.4282 9.637C85.4972 11.585 84.1921 14.0653 83.6802 16.76C83.2132 16.699 82.7802 16.618 82.5762 16.593C83.1279 13.6391 84.5607 10.9213 86.6862 8.797ZM87.4202 30.575C85.0591 28.513 83.4082 25.7592 82.7022 22.705C83.1262 22.682 83.5822 22.668 83.8392 22.662C84.5119 25.3776 85.9945 27.8245 88.0902 29.678C87.8202 30.044 87.5142 30.431 87.4202 30.575ZM92.3052 23.988C92.0222 24.736 90.9092 27.343 90.2712 28.654C90.1823 28.8287 90.081 28.9968 89.9682 29.157L89.9632 29.161C88.6665 28.2002 87.5732 26.9918 86.7466 25.6058C85.9199 24.2197 85.3763 22.6835 85.1472 21.086C86.4452 21.098 90.8612 21.509 90.8612 21.509C90.8612 21.509 92.0152 21.604 92.4352 22.469L92.4582 22.532C92.5262 22.838 92.5222 23.346 92.3052 23.988ZM97.2392 34.266C95.6762 34.266 94.1702 34.025 92.7542 33.579C92.9382 33.227 93.1402 32.823 93.2682 32.566C94.5564 32.9529 95.8942 33.1493 97.2392 33.149C98.6705 33.1495 100.093 32.9275 101.456 32.491C101.613 32.966 101.766 33.385 101.842 33.539C100.356 34.0215 98.8022 34.2669 97.2392 34.266ZM97.2392 31.563C95.6368 31.5643 94.0498 31.2497 92.5692 30.637L92.5752 30.627C93.1782 29.617 95.7692 25.935 95.7692 25.935C95.7692 25.935 96.4072 25.063 97.3652 25.152V25.115C97.6012 25.175 98.2602 25.392 98.7842 25.992C99.2872 26.613 100.979 29.136 101.79 30.348C101.83 30.408 101.894 30.517 101.95 30.621C100.458 31.2446 98.8562 31.5648 97.2392 31.563ZM104.544 29.141C103.876 27.833 102.212 23.983 102.212 23.983C102.212 23.983 101.742 22.987 102.302 22.205L102.327 22.158C102.737 21.315 103.701 21.194 103.701 21.194C103.701 21.194 108.083 20.661 109.393 20.612C109.219 22.2919 108.698 23.9174 107.863 25.3855C107.028 26.8536 105.899 28.1324 104.544 29.141ZM107.154 30.492C106.88 30.052 106.627 29.658 106.549 29.537C108.693 27.5814 110.165 24.9991 110.756 22.158C111.013 22.163 111.466 22.172 111.888 22.185C111.265 25.3988 109.602 28.3181 107.154 30.492Z" fill="#D1D5DB"/>
<path id="Vector_18" d="M97.2379 14.84C94.7539 14.84 92.7339 16.861 92.7339 19.345C92.7339 21.829 94.7539 23.849 97.2379 23.849C98.432 23.8476 99.5769 23.3727 100.421 22.5283C101.266 21.6839 101.741 20.5391 101.742 19.345C101.74 18.1509 101.265 17.0062 100.421 16.1619C99.5766 15.3176 98.4319 14.8416 97.2379 14.84ZM95.4499 15.871C95.6599 15.8712 95.8611 15.9548 96.0096 16.1032C96.1581 16.2517 96.2416 16.453 96.2419 16.663C96.2346 16.8683 96.1479 17.0627 96.0001 17.2054C95.8523 17.3481 95.6548 17.4278 95.4494 17.4278C95.2439 17.4278 95.0465 17.3481 94.8987 17.2054C94.7509 17.0627 94.6642 16.8683 94.6569 16.663C94.6569 16.4526 94.7404 16.2509 94.8892 16.1022C95.0379 15.9535 95.2396 15.87 95.4499 15.87M94.2039 20.952C93.9937 20.952 93.7922 20.8686 93.6435 20.7201C93.4948 20.5716 93.4112 20.3701 93.4109 20.16C93.4112 19.9498 93.4948 19.7484 93.6435 19.5999C93.7922 19.4514 93.9937 19.368 94.2039 19.368C94.4071 19.3782 94.5985 19.4661 94.7387 19.6135C94.8789 19.7609 94.9571 19.9565 94.9571 20.16C94.9571 20.3634 94.8789 20.559 94.7387 20.7064C94.5985 20.8539 94.4071 20.9418 94.2039 20.952ZM97.2379 23.309C97.0277 23.309 96.8262 23.2256 96.6775 23.0771C96.5288 22.9286 96.4452 22.7271 96.4449 22.517C96.4449 22.3066 96.5284 22.1049 96.6771 21.9562C96.8259 21.8075 97.0276 21.724 97.2379 21.724C97.448 21.7242 97.6495 21.8079 97.798 21.9566C97.9465 22.1053 98.0299 22.3068 98.0299 22.517C98.0296 22.7269 97.9461 22.9282 97.7976 23.0767C97.6492 23.2252 97.4479 23.3087 97.2379 23.309ZM97.2379 21.279C96.7251 21.279 96.2333 21.0753 95.8707 20.7127C95.5081 20.3501 95.3044 19.8583 95.3044 19.3455C95.3044 18.8327 95.5081 18.3409 95.8707 17.9783C96.2333 17.6157 96.7251 17.412 97.2379 17.412C97.7505 17.412 98.2422 17.6156 98.6047 17.9781C98.9672 18.3406 99.1709 18.8323 99.1709 19.345C99.1709 19.8576 98.9672 20.3493 98.6047 20.7118C98.2422 21.0743 97.7505 21.279 97.2379 21.279ZM98.3799 16.831C98.3801 16.621 98.4637 16.4197 98.6122 16.2712C98.7606 16.1228 98.9619 16.0392 99.1719 16.039C99.3288 16.0388 99.4823 16.0851 99.6128 16.1722C99.7434 16.2593 99.8452 16.3831 99.9053 16.528C99.9655 16.673 99.9813 16.8325 99.9507 16.9864C99.9201 17.1403 99.8446 17.2817 99.7336 17.3927C99.6227 17.5037 99.4813 17.5792 99.3273 17.6098C99.1734 17.6403 99.0139 17.6246 98.869 17.5644C98.724 17.5043 98.6002 17.4025 98.5131 17.2719C98.4261 17.1413 98.3797 16.9879 98.3799 16.831ZM101.059 20.401C101.059 20.5051 101.039 20.6082 100.999 20.7045C100.959 20.8008 100.901 20.8883 100.827 20.962C100.754 21.0357 100.666 21.0942 100.57 21.1342C100.474 21.1742 100.371 21.1948 100.267 21.195C100.057 21.195 99.8549 21.1114 99.7061 20.9627C99.5574 20.814 99.4739 20.6123 99.4739 20.402C99.4812 20.1967 99.5679 20.0022 99.7157 19.8595C99.8635 19.7169 100.061 19.6371 100.266 19.6371C100.472 19.6371 100.669 19.7169 100.817 19.8595C100.965 20.0022 101.052 20.1967 101.059 20.402" fill="#D1D5DB"/>
</g>
</svg>
