<svg width="100" height="100" viewBox="0 0 100 100" fill="none" xmlns="http://www.w3.org/2000/svg">
<path fill-rule="evenodd" clip-rule="evenodd" d="M47.2468 0.0811931C62.5904 0.589104 77.5428 5.69163 87.3725 17.2824C97.4664 29.1847 103.111 45.4401 98.2011 60.1644C93.652 73.8066 77.87 78.158 64.8826 84.7274C51.1443 91.6766 36.9285 104.793 23.0111 98.1977C9.09578 91.6029 11.1052 72.4158 7.66849 57.6124C4.23229 42.8109 -5.06961 27.0854 3.58245 14.5087C12.6315 1.35495 31.1008 -0.453282 47.2468 0.0811931Z" fill="#EA580C"/>
<path d="M44.729 39.1042L41.7915 42.0625L47.9165 48.1667L58.729 37.375L55.7915 34.4167L47.9165 42.2917M60.4165 25.25H39.5832C37.2915 25.25 35.4165 27.125 35.4165 29.4167V62.75L49.9998 56.5L64.5832 62.75V29.4167C64.5832 27.125 62.7082 25.25 60.4165 25.25ZM60.4165 56.5L49.9998 51.9583L39.5832 56.5V29.4167H60.4165V56.5Z" fill="white"/>
</svg>
