<svg width="60" height="49" viewBox="0 0 60 49" fill="none" xmlns="http://www.w3.org/2000/svg">
<path d="M3.8147e-06 49H23.0464C25.298 41.6667 26.4238 34.0667 26.4238 26.2C26.4238 18.2 24.3709 11.8667 20.2649 7.19999C16.0265 2.4 9.80133 0 1.58941 0V11.2C8.21192 11.2 11.5232 15.2667 11.5232 23.4V27.2H3.8147e-06V49ZM33.5762 49H56.6225C58.8742 41.6667 60 34.0667 60 26.2C60 18.2 57.947 11.8667 53.8411 7.19999C49.6027 2.4 43.3775 0 35.1656 0V11.2C41.7881 11.2 45.0993 15.2667 45.0993 23.4V27.2H33.5762V49Z" fill="#FCDFCF"/>
</svg>
