<svg width="100" height="100" viewBox="0 0 100 100" fill="none" xmlns="http://www.w3.org/2000/svg">
<path fill-rule="evenodd" clip-rule="evenodd" d="M47.2468 0.0811931C62.5904 0.589104 77.5428 5.69163 87.3725 17.2824C97.4664 29.1847 103.111 45.4401 98.2011 60.1644C93.652 73.8066 77.87 78.158 64.8826 84.7274C51.1443 91.6766 36.9285 104.793 23.0111 98.1977C9.09578 91.6029 11.1052 72.4158 7.66849 57.6124C4.23229 42.8109 -5.06961 27.0854 3.58245 14.5087C12.6315 1.35495 31.1008 -0.453282 47.2468 0.0811931Z" fill="#FCDFCF"/>
<path d="M60.4165 25.9583C63.5836 27.7868 66.2136 30.4168 68.0421 33.5839C69.8706 36.751 70.8332 40.3436 70.8332 44.0006C70.8331 47.6577 69.8705 51.2503 68.0419 54.4173C66.2134 57.5844 63.5834 60.2144 60.4163 62.0428C57.2492 63.8713 53.6565 64.8339 49.9995 64.8338C46.3425 64.8338 42.7499 63.8711 39.5828 62.0425C36.4158 60.2139 33.7859 57.5839 31.9574 54.4168C30.129 51.2496 29.1664 47.657 29.1665 44L29.1769 43.325C29.2936 39.727 30.3406 36.2207 32.2158 33.1479C34.0909 30.075 36.7304 27.5405 39.8767 25.7914C43.023 24.0423 46.5689 23.1383 50.1686 23.1676C53.7683 23.1968 57.299 24.1583 60.4165 25.9583ZM33.3332 44C33.3333 48.0593 34.8149 51.9791 37.5 55.0236C40.1851 58.0681 43.889 60.028 47.9165 60.5354V49.8958C46.9604 49.5581 46.1008 48.9928 45.4119 48.2488C44.7231 47.5047 44.2255 46.6042 43.9623 45.625L33.3998 42.4916C33.3568 42.9916 33.3346 43.4951 33.3332 44.0021M66.5978 42.4916L56.0373 45.6229C55.7746 46.6023 55.2776 47.5031 54.589 48.2475C53.9005 48.9919 53.0412 49.5576 52.0853 49.8958V60.5375C56.2857 60.0081 60.1272 57.9001 62.8299 54.6414C65.5326 51.3826 66.8939 47.2175 66.6373 42.9916L66.5978 42.4916ZM41.6665 29.5666C38.239 31.5457 35.6277 34.6799 34.2998 38.4083L44.3248 41.3791C44.8251 40.295 45.6254 39.3768 46.6311 38.7333C47.6368 38.0897 48.8058 37.7477 49.9998 37.7477C51.1938 37.7477 52.3628 38.0897 53.3686 38.7333C54.3743 39.3768 55.1746 40.295 55.6748 41.3791L65.6998 38.4083C64.88 36.1066 63.5641 34.0133 61.8453 32.2767C60.1266 30.54 58.047 29.2025 55.7539 28.3589C53.4608 27.5153 51.0102 27.1862 48.5758 27.3949C46.1413 27.6036 43.7826 28.345 41.6665 29.5666Z" fill="#EA580C"/>
</svg>
