<svg width="24" height="24" viewBox="0 0 24 24" fill="none" xmlns="http://www.w3.org/2000/svg">
<path d="M13.5753 23.9252H10.6503C9.90029 23.9252 9.30029 23.2877 9.30029 22.5002V13.5752H6.90029C6.15029 13.5752 5.55029 12.9377 5.55029 12.1502V9.5627C5.55029 8.7752 6.15029 8.1377 6.90029 8.1377H9.22529V5.7752C9.22529 2.36269 11.2503 0.0751953 14.2503 0.0751953H16.5003C17.2503 0.0751953 17.8503 0.712697 17.8503 1.5002V4.5377C17.8503 5.3252 17.2503 5.9627 16.5003 5.9627H14.9628C14.9253 5.9627 14.9253 5.9627 14.8878 5.9627C14.8878 6.0002 14.8878 6.0377 14.8878 6.0752V8.1002H17.0253C17.4753 8.1377 17.8503 8.3252 18.1128 8.6252C18.3753 8.9627 18.4878 9.4127 18.4128 9.8252L17.9628 12.3752C17.8878 13.0502 17.3253 13.5377 16.6128 13.5377H14.8878V22.5002C14.8878 23.2502 14.2878 23.9252 13.5753 23.9252ZM9.93779 12.2627C10.3128 12.2627 10.6128 12.5627 10.6128 12.9377V22.5002C10.6128 22.5752 10.6503 22.6127 10.6503 22.6127H13.5753C13.5753 22.6127 13.6128 22.5752 13.6128 22.5002V12.8627C13.6128 12.4877 13.9128 12.1877 14.2878 12.1877H16.6503C16.6503 12.1877 16.6878 12.1877 16.6878 12.1502V12.1127L17.1378 9.6002C17.1378 9.5252 17.1378 9.4877 17.1003 9.4502C17.1003 9.4502 17.0628 9.4127 17.0253 9.4127H14.2503C13.8753 9.4127 13.5753 9.1127 13.5753 8.7377V6.0752C13.5753 5.4002 13.6878 4.6502 14.9628 4.6502H16.5003C16.5003 4.6502 16.5378 4.6127 16.5378 4.5377V1.5377C16.5378 1.4627 16.5003 1.4252 16.5003 1.4252H14.2878C12.0378 1.4252 10.5753 3.1502 10.5753 5.8127V8.8502C10.5753 9.2252 10.2753 9.5252 9.90029 9.5252H6.90029C6.90029 9.5252 6.86279 9.5627 6.86279 9.6377V12.2252C6.86279 12.3002 6.90029 12.3377 6.90029 12.3377L9.93779 12.2627Z" fill="#4B5563"/>
</svg>
