<svg width="24" height="24" viewBox="0 0 24 24" fill="none" xmlns="http://www.w3.org/2000/svg">
<g clip-path="url(#clip0_275_252)">
<path d="M12.0006 6.59961C9.03808 6.59961 6.60059 8.99961 6.60059 11.9996C6.60059 14.9621 9.00058 17.3996 12.0006 17.3996C14.9631 17.3996 17.3631 14.9996 17.3631 11.9996C17.3631 9.03711 14.9631 6.59961 12.0006 6.59961ZM12.0006 15.7121C9.97558 15.7121 8.28809 14.0621 8.28809 11.9996C8.28809 9.97461 9.93808 8.28711 12.0006 8.28711C14.0256 8.28711 15.6756 9.93711 15.6756 11.9996C15.6756 14.0246 14.0256 15.7121 12.0006 15.7121Z" fill="#4B5563"/>
<path d="M17.625 4.34961C16.875 4.34961 16.3125 4.94961 16.3125 5.66211C16.3125 6.37461 16.9125 6.97461 17.625 6.97461C18.3375 6.97461 18.9375 6.37461 18.9375 5.66211C18.9375 4.94961 18.375 4.34961 17.625 4.34961Z" fill="#4B5563"/>
<path d="M17.5878 0.674805H6.4128C3.22529 0.674805 0.675293 3.2248 0.675293 6.4123V17.6248C0.675293 20.7748 3.26279 23.3623 6.4128 23.3623H17.6253C20.7753 23.3623 23.3628 20.7748 23.3628 17.6248V6.4123C23.3628 3.2248 20.7753 0.674805 17.5878 0.674805ZM21.6753 17.5873C21.6753 19.8373 19.8753 21.6373 17.6253 21.6373H6.4128C4.1628 21.6373 2.36279 19.8373 2.36279 17.5873V6.4123C2.36279 4.1623 4.2003 2.3623 6.4128 2.3623H17.5878C19.8378 2.3623 21.6378 4.1998 21.6378 6.4123V17.5873H21.6753Z" fill="#4B5563"/>
</g>
<defs>
<clipPath id="clip0_275_252">
<rect width="24" height="24" fill="white"/>
</clipPath>
</defs>
</svg>
