<svg width="60" height="49" viewBox="0 0 60 49" fill="none" xmlns="http://www.w3.org/2000/svg">
<path d="M60 49H36.9536C34.702 41.6667 33.5762 34.0667 33.5762 26.2C33.5762 18.2 35.6291 11.8667 39.7351 7.19999C43.9735 2.4 50.1987 0 58.4106 0V11.2C51.7881 11.2 48.4768 15.2667 48.4768 23.4V27.2H60V49ZM26.4238 49H3.37748C1.12583 41.6667 0 34.0667 0 26.2C0 18.2 2.05298 11.8667 6.15894 7.19999C10.3973 2.4 16.6225 0 24.8344 0V11.2C18.2119 11.2 14.9007 15.2667 14.9007 23.4V27.2H26.4238V49Z" fill="#FCDFCF"/>
</svg>
