<svg width="100" height="100" viewBox="0 0 100 100" fill="none" xmlns="http://www.w3.org/2000/svg">
<path fill-rule="evenodd" clip-rule="evenodd" d="M47.2468 0.0811931C62.5904 0.589104 77.5428 5.69163 87.3725 17.2824C97.4664 29.1847 103.111 45.4401 98.2011 60.1644C93.652 73.8066 77.87 78.158 64.8826 84.7274C51.1443 91.6766 36.9285 104.793 23.0111 98.1977C9.09578 91.6029 11.1052 72.4158 7.66849 57.6124C4.23229 42.8109 -5.06961 27.0854 3.58245 14.5087C12.6315 1.35495 31.1008 -0.453282 47.2468 0.0811931Z" fill="#FCDFCF"/>
<path d="M64.375 31.5C63.9583 30.25 62.7083 29.4166 61.4583 29.4166H38.5417C37.0833 29.4166 36.0417 30.25 35.625 31.5L31.25 44V60.6666C31.25 61.7083 32.2917 62.75 33.3333 62.75H35.4167C36.6667 62.75 37.5 61.7083 37.5 60.6666V58.5833H62.5V60.6666C62.5 61.7083 63.5417 62.75 64.5833 62.75H66.6667C67.7083 62.75 68.75 61.7083 68.75 60.6666V44L64.375 31.5ZM39.1667 33.5833H60.625L62.9167 39.8333H37.0833L39.1667 33.5833ZM64.5833 54.4166H35.4167V44H64.5833V54.4166ZM40.625 46.0833C42.2917 46.0833 43.75 47.5416 43.75 49.2083C43.75 50.875 42.2917 52.3333 40.625 52.3333C38.9583 52.3333 37.5 50.875 37.5 49.2083C37.5 47.5416 38.9583 46.0833 40.625 46.0833ZM59.375 46.0833C61.0417 46.0833 62.5 47.5416 62.5 49.2083C62.5 50.875 61.0417 52.3333 59.375 52.3333C57.7083 52.3333 56.25 50.875 56.25 49.2083C56.25 47.5416 57.7083 46.0833 59.375 46.0833Z" fill="#EA580C"/>
</svg>
