<svg width="100" height="100" viewBox="0 0 100 100" fill="none" xmlns="http://www.w3.org/2000/svg">
<path fill-rule="evenodd" clip-rule="evenodd" d="M47.2468 0.0811931C62.5904 0.589104 77.5428 5.69163 87.3725 17.2824C97.4664 29.1847 103.111 45.4401 98.2011 60.1644C93.652 73.8066 77.87 78.158 64.8826 84.7274C51.1443 91.6766 36.9285 104.793 23.0111 98.1977C9.09578 91.6029 11.1052 72.4158 7.66849 57.6124C4.23229 42.8109 -5.06961 27.0854 3.58245 14.5087C12.6315 1.35495 31.1008 -0.453282 47.2468 0.0811931Z" fill="#FCDFCF"/>
<g clip-path="url(#clip0_79_748)">
<path d="M67.222 43.4444C64.722 40.8055 61.3887 39 57.9165 38.3055C56.3887 37.8889 54.8609 37.6111 53.3331 37.4722C57.222 32.8889 56.5276 25.9444 51.9442 22.0555C47.3609 18.1666 40.4165 18.8611 36.5276 23.4444C32.6387 28.0278 33.3331 34.9722 37.9165 38.8611C38.7498 39.5555 39.5831 40.1111 40.4165 40.3889V43.4444L38.1942 41.3611C36.2498 39.4166 33.0554 39.4166 30.972 41.3611C29.0276 43.3055 28.8887 46.3611 30.8331 48.3055L37.222 55.8055C37.4998 57.75 38.1942 59.5555 39.1665 61.2222C39.8609 62.4722 40.8331 63.7222 41.8054 64.6944V67.3333C41.8054 68.1666 42.3609 68.7222 43.1942 68.7222H62.0831C62.7776 68.7222 63.472 68.0277 63.472 67.3333V63.7222C66.1109 60.5278 67.4998 56.5 67.4998 52.4722V44.4166C67.6387 43.8611 67.4998 43.5833 67.222 43.4444ZM36.6665 30.3889C36.6665 25.8055 40.4165 22.1944 44.9998 22.3333C49.5831 22.3333 53.1942 26.0833 53.0554 30.6666C53.0554 33.1666 51.9442 35.3889 49.9998 36.9166V29.9722C49.9289 28.7685 49.4002 27.6376 48.5222 26.8112C47.6442 25.9849 46.4833 25.5257 45.2776 25.5278C42.7776 25.3889 40.5554 27.4722 40.5554 29.9722V37.1944C38.1942 35.8055 36.8054 33.1666 36.6665 30.3889ZM64.8609 52.3333C64.9998 55.9444 63.7498 59.4166 61.3887 62.1944C61.1109 62.4722 60.8331 62.75 60.8331 63.1666V66.0833H44.722V64.1389C44.722 63.7222 44.4442 63.3055 44.1665 63.0278C43.1942 62.1944 42.3609 61.2222 41.6665 59.9722C40.8331 58.5833 40.2776 56.9166 39.9998 55.25C39.9998 54.9722 39.8609 54.6944 39.722 54.4166L33.0554 46.5C32.6387 46.0833 32.3609 45.5278 32.3609 44.8333C32.3609 44.2778 32.6387 43.5833 33.0554 43.1666C34.0276 42.3333 35.4165 42.3333 36.3887 43.1666L40.4165 47.1944V51.3611L43.0554 49.9722V29.9722C43.1942 29 44.0276 28.1666 45.1387 28.3055C46.1109 28.3055 47.0831 29 47.0831 29.9722V45.9444L49.8609 46.5V40.1111C49.9998 39.9722 50.1387 39.9722 50.2776 39.8333C51.2498 39.8333 52.222 39.9722 53.1942 40.1111V47.1944L55.4165 47.6111V40.3889L57.0831 40.8055C57.7776 40.9444 58.472 41.2222 59.1665 41.5V48.4444L61.3887 48.8611V42.4722C62.6387 43.0278 63.7498 43.8611 64.722 44.8333L64.8609 52.3333Z" fill="#EA580C"/>
</g>
<defs>
<clipPath id="clip0_79_748">
<rect width="50" height="50" fill="white" transform="translate(25 19)"/>
</clipPath>
</defs>
</svg>
