<svg width="24" height="25" viewBox="0 0 24 25" fill="none" xmlns="http://www.w3.org/2000/svg">
<path d="M11.9402 2.71L9.5302 8.32H7.1202C6.7202 8.32 6.3302 8.35 5.9502 8.43L6.9502 6.03L6.9902 5.94L7.0502 5.78C7.0802 5.71 7.1002 5.65 7.1302 5.6C8.2902 2.91 9.5902 2.07 11.9402 2.71Z" fill="#EA580C"/>
<path d="M18.7301 8.59L18.7101 8.58C18.1101 8.41 17.5001 8.32 16.8801 8.32H10.6201L12.8701 3.09L12.9001 3.02C13.0401 3.07 13.1901 3.14 13.3401 3.19L15.5501 4.12C16.7801 4.63 17.6401 5.16 18.1701 5.8C18.2601 5.92 18.3401 6.03 18.4201 6.16C18.5101 6.3 18.5801 6.44 18.6201 6.59C18.6601 6.68 18.6901 6.76 18.7101 6.85C18.8601 7.36 18.8701 7.94 18.7301 8.59Z" fill="#EA580C"/>
<path d="M12.52 18.16H12.77C13.07 18.16 13.32 17.89 13.32 17.56C13.32 17.14 13.2 17.08 12.94 16.98L12.52 16.83V18.16Z" fill="#EA580C"/>
<path d="M18.2902 10.02C17.8402 9.89001 17.3702 9.82001 16.8802 9.82001H7.12023C6.44023 9.82001 5.80023 9.95001 5.20023 10.21C3.46023 10.96 2.24023 12.69 2.24023 14.7V16.65C2.24023 16.89 2.26023 17.12 2.29023 17.36C2.51023 20.54 4.21023 22.24 7.39023 22.45C7.62023 22.48 7.85023 22.5 8.10023 22.5H15.9002C19.6002 22.5 21.5502 20.74 21.7402 17.24C21.7502 17.05 21.7602 16.85 21.7602 16.65V14.7C21.7602 12.49 20.2902 10.63 18.2902 10.02ZM13.2802 16C13.7402 16.16 14.3602 16.5 14.3602 17.56C14.3602 18.47 13.6502 19.2 12.7702 19.2H12.5202V19.42C12.5202 19.71 12.2902 19.94 12.0002 19.94C11.7102 19.94 11.4802 19.71 11.4802 19.42V19.2H11.3902C10.4302 19.2 9.64023 18.39 9.64023 17.39C9.64023 17.1 9.87023 16.87 10.1602 16.87C10.4502 16.87 10.6802 17.1 10.6802 17.39C10.6802 17.81 11.0002 18.16 11.3902 18.16H11.4802V16.47L10.7202 16.2C10.2602 16.04 9.64023 15.7 9.64023 14.64C9.64023 13.73 10.3502 13 11.2302 13H11.4802V12.78C11.4802 12.49 11.7102 12.26 12.0002 12.26C12.2902 12.26 12.5202 12.49 12.5202 12.78V13H12.6102C13.5702 13 14.3602 13.81 14.3602 14.81C14.3602 15.1 14.1302 15.33 13.8402 15.33C13.5502 15.33 13.3202 15.1 13.3202 14.81C13.3202 14.39 13.0002 14.04 12.6102 14.04H12.5202V15.73L13.2802 16Z" fill="#EA580C"/>
<path d="M10.6802 14.64C10.6802 15.06 10.8002 15.12 11.0602 15.22L11.4802 15.37V14.04H11.2302C10.9202 14.04 10.6802 14.31 10.6802 14.64Z" fill="#EA580C"/>
</svg>
